<svg width="74" height="12" viewBox="0 0 74 12" fill="none" xmlns="http://www.w3.org/2000/svg">
<path fill-rule="evenodd" clip-rule="evenodd" d="M15.4282 0H-0.000244141V12H15.4282V0ZM2.57109 10.2857C2.27755 10.2857 1.99091 10.256 1.71395 10.1999V1.80008C1.89258 1.76409 2.07522 1.73856 2.26115 1.72517C2.28882 1.72307 2.31655 1.72182 2.34436 1.72056L2.40938 1.71763C2.46303 1.71554 2.51695 1.71429 2.57109 1.71429C4.93802 1.71429 6.85681 3.63323 6.85681 6C6.85681 8.36677 4.93802 10.2857 2.57109 10.2857ZM12.8568 10.2857C12.9166 10.2857 12.9761 10.2845 13.0353 10.2819C13.1336 10.2782 13.2311 10.2711 13.3277 10.2606C13.4583 10.246 13.5871 10.2259 13.714 10.1999V1.80008C13.5562 1.76828 13.3953 1.74484 13.2317 1.73061C13.1082 1.71973 12.9831 1.71429 12.8568 1.71429C10.4899 1.71429 8.57109 3.63323 8.57109 6C8.57109 8.36677 10.4899 10.2857 12.8568 10.2857Z" fill="#CBCBCB"/>
<path d="M29.6405 1.01486L25.5211 11.7531H23.3303L19.2108 1.01486H21.4943L24.472 9.22286L27.4343 1.01486H29.6405Z" fill="#CBCBCB"/>
<path d="M33.6038 11.7531H31.5055V1.01486H33.6038V11.7531Z" fill="#CBCBCB"/>
<path d="M40.2801 12C39.0253 12 38.0018 11.712 37.2098 11.136C36.4281 10.56 35.919 9.75771 35.6824 8.72914H37.7807C37.9144 9.16114 38.1973 9.51086 38.6293 9.77829C39.0716 10.0354 39.6116 10.164 40.2493 10.164C40.8561 10.164 41.355 10.0509 41.7458 9.82457C42.147 9.588 42.3476 9.24857 42.3476 8.80628C42.3476 8.54914 42.291 8.328 42.1778 8.14286C42.0647 7.94743 41.8538 7.78286 41.5453 7.64914C41.2367 7.50514 40.7893 7.38686 40.203 7.29429L38.9996 7.09371C38.0018 6.92914 37.251 6.61029 36.747 6.13714C36.2533 5.664 36.0064 4.98514 36.0064 4.10057C36.0064 3.42171 36.1864 2.83543 36.5464 2.34171C36.9167 1.83771 37.4104 1.452 38.0276 1.18457C38.655 0.906857 39.3544 0.768 40.1258 0.768C41.247 0.768 42.1881 1.03543 42.9493 1.57029C43.7104 2.09486 44.1784 2.86629 44.3533 3.88457H42.255C42.1521 3.45257 41.9156 3.13371 41.5453 2.928C41.175 2.712 40.707 2.604 40.1413 2.604C39.5138 2.604 39.0201 2.72228 38.6601 2.95886C38.3001 3.18514 38.1201 3.504 38.1201 3.91543C38.1201 4.28571 38.2538 4.57371 38.5213 4.77943C38.799 4.98514 39.3441 5.15486 40.1567 5.28857L41.3138 5.47371C43.4224 5.81314 44.4767 6.85714 44.4767 8.60571C44.4767 9.32571 44.2967 9.94286 43.9367 10.4571C43.5767 10.9611 43.0778 11.3469 42.4401 11.6143C41.8127 11.8714 41.0927 12 40.2801 12Z" fill="#CBCBCB"/>
<path d="M48.8499 11.7531H46.7516V1.01486H48.8499V11.7531Z" fill="#CBCBCB"/>
<path d="M56.5754 12C55.7834 12 55.0531 11.8611 54.3845 11.5834C53.7262 11.3057 53.1554 10.9149 52.6719 10.4109C52.1885 9.90686 51.8131 9.31543 51.5456 8.63657C51.2782 7.94743 51.1445 7.19657 51.1445 6.384C51.1445 5.57143 51.2782 4.82571 51.5456 4.14686C51.8131 3.45771 52.1885 2.86114 52.6719 2.35714C53.1554 1.85314 53.7262 1.46228 54.3845 1.18457C55.0531 0.906857 55.7834 0.768 56.5754 0.768C57.3674 0.768 58.0925 0.906857 58.7508 1.18457C59.4194 1.46228 59.9954 1.85314 60.4788 2.35714C60.9725 2.86114 61.3531 3.45771 61.6205 4.14686C61.8879 4.82571 62.0216 5.57143 62.0216 6.384C62.0216 7.19657 61.8879 7.94743 61.6205 8.63657C61.3531 9.31543 60.9725 9.90686 60.4788 10.4109C59.9954 10.9149 59.4194 11.3057 58.7508 11.5834C58.0925 11.8611 57.3674 12 56.5754 12ZM56.5754 10.1177C57.2234 10.1177 57.7942 9.96343 58.2879 9.65486C58.7919 9.336 59.1828 8.89886 59.4605 8.34343C59.7485 7.77771 59.8925 7.12457 59.8925 6.384C59.8925 5.64343 59.7485 4.99543 59.4605 4.44C59.1828 3.87429 58.7919 3.43714 58.2879 3.12857C57.7942 2.80971 57.2234 2.65029 56.5754 2.65029C55.9376 2.65029 55.3668 2.80971 54.8628 3.12857C54.3691 3.43714 53.9782 3.87429 53.6902 4.44C53.4125 4.99543 53.2736 5.64343 53.2736 6.384C53.2736 7.12457 53.4125 7.77771 53.6902 8.34343C53.9782 8.89886 54.3691 9.336 54.8628 9.65486C55.3668 9.96343 55.9376 10.1177 56.5754 10.1177Z" fill="#CBCBCB"/>
<path d="M64.318 11.7531V1.01486H66.3546L71.6775 8.544V1.01486H73.714V11.7531H71.6775L66.3546 4.224V11.7531H64.318Z" fill="#CBCBCB"/>
</svg>
