<svg width="20" height="20" viewBox="0 0 20 20" fill="none" xmlns="http://www.w3.org/2000/svg">
<circle cx="10" cy="10" r="9.23077" stroke="white" stroke-width="1.53846"/>
<path d="M10.4638 7.66775C10.2054 7.66775 9.97154 7.56929 9.78692 7.38467C9.59 7.20006 9.49154 6.96621 9.49154 6.69544C9.49154 6.42467 9.59 6.19083 9.78692 6.00621C9.97154 5.82159 10.2054 5.72313 10.4638 5.72313C10.7223 5.72313 10.9562 5.82159 11.1531 6.00621C11.3377 6.19083 11.4362 6.42467 11.4362 6.69544C11.4362 6.96621 11.3377 7.20006 11.1531 7.38467C10.9562 7.56929 10.7223 7.66775 10.4638 7.66775ZM9.67615 14.7693V8.40621H11.2392V14.7693H9.67615Z" fill="white"/>
</svg>
