<svg width="17" height="20" viewBox="0 0 17 20" fill="none" xmlns="http://www.w3.org/2000/svg">
<path d="M8.50962 3.48418C8.85014 3.48418 9.65918 3.69952 9.65918 3.69952C11.851 4.20178 13.3937 6.22063 13.3937 8.5V14.6352L13.8418 15.0854L14.2163 15.4615H2.70683L3.08125 15.0854L3.52937 14.6352V8.5C3.52937 6.22067 5.07212 4.20178 7.26389 3.69952C7.26389 3.69952 8.13135 3.48418 8.41346 3.48418M8.46154 0C7.61529 0 6.96832 0.649904 6.96832 1.5V2.19995C4.13106 2.8501 1.99091 5.45 1.99091 8.5V14L0 16V17H16.9231V16L14.9322 14V8.5C14.9322 5.45 12.792 2.8501 9.95476 2.19995V1.5C9.95476 0.649904 9.30779 0 8.46154 0ZM10.4525 18H6.47058C6.47058 19.1 7.36639 20 8.46154 20C9.55668 20 10.4525 19.1 10.4525 18Z" fill="white"/>
</svg>
