<svg width="18" height="22" viewBox="0 0 18 22" fill="none" xmlns="http://www.w3.org/2000/svg">
<circle cx="8.88301" cy="4.65352" r="3.80743" stroke="#B3B3B3" stroke-width="1.69219"/>
<path d="M16.9207 17.7679C16.9207 18.7701 16.7198 19.4059 16.4344 19.827C16.1549 20.2392 15.7331 20.5362 15.1077 20.7455C14.4671 20.9599 13.6544 21.068 12.6566 21.1166C11.835 21.1565 10.9352 21.1549 9.94793 21.1531C9.73788 21.1527 9.52387 21.1523 9.30582 21.1523C9.10436 21.1523 8.90516 21.1526 8.70833 21.1529C6.44183 21.156 4.49122 21.1587 3.05056 20.736C2.29544 20.5144 1.76662 20.197 1.42081 19.7696C1.08154 19.3502 0.844874 18.734 0.844874 17.7679C0.844874 13.9291 4.29832 10.9992 8.88277 10.9992C13.4672 10.9992 16.9207 13.9291 16.9207 17.7679Z" stroke="#B3B3B3" stroke-width="1.69219"/>
</svg>
