<svg width="14" height="16" viewBox="0 0 14 16" fill="none" xmlns="http://www.w3.org/2000/svg">
<path fill-rule="evenodd" clip-rule="evenodd" d="M5.98243 1.3764V3.99548C5.98243 4.1722 5.94655 4.35111 5.87322 4.51722C4.70982 7.15264 2.99393 8.44471 1.34778 8.73876C1.30752 8.74595 1.27483 8.76637 1.25665 8.78611C1.24843 8.79504 1.24544 8.80128 1.24469 8.80313L1.24444 13.0334C1.24444 13.0334 1.24591 13.0354 1.24752 13.0369C1.25414 13.0431 1.2637 13.047 1.27494 13.0463C2.62308 12.9648 3.49747 13.1092 4.16766 13.3373C4.49744 13.4495 4.76431 13.5776 4.98882 13.6881C5.00846 13.6978 5.02762 13.7072 5.04633 13.7164C5.24947 13.8166 5.40092 13.8913 5.56314 13.9488C5.65445 13.9812 5.92995 14.0218 6.40963 14.0437C6.85884 14.0643 7.414 14.0665 8.00641 14.0568C9.18991 14.0374 10.4917 13.9708 11.328 13.9152L11.348 13.9138H11.3681C11.4601 13.9138 11.5177 13.9022 11.5505 13.8918C11.5814 13.882 11.5921 13.8729 11.5937 13.8715C11.5954 13.8701 11.6 13.8662 11.6069 13.8528C11.6148 13.8377 11.6259 13.8097 11.6353 13.7632C11.6813 13.5341 11.6314 13.2009 11.5607 12.8076C11.4834 12.3773 11.7014 12.003 11.991 11.8111C12.4957 11.4766 12.5088 11.0716 12.4643 10.9348C12.3822 10.6819 12.3529 10.3064 12.5662 9.97176C12.7767 9.64151 12.7706 9.42996 12.7389 9.29966C12.7003 9.14094 12.5927 8.98405 12.4394 8.83399C12.0944 8.49618 12.0536 7.98031 12.255 7.59507C12.3405 7.43149 12.3401 7.3251 12.3276 7.25785C12.3132 7.17989 12.2693 7.09054 12.1842 6.9951C12.0986 6.89911 11.9892 6.81798 11.8881 6.76233C11.8405 6.73616 11.8019 6.71961 11.7771 6.71074H8.35405V4.47324C8.35405 2.50714 7.90054 1.7779 7.5275 1.50357C7.14393 1.2215 6.6099 1.23586 5.98243 1.3764ZM8.25181 0.463911C9.12797 1.10823 9.59849 2.38517 9.59849 4.47324V5.4322H11.8221C11.9577 5.4322 12.0842 5.46785 12.1714 5.49807C12.2703 5.53232 12.3736 5.57915 12.4756 5.63525C12.6777 5.74644 12.9053 5.91116 13.1016 6.13124C13.2984 6.35187 13.4815 6.64881 13.5501 7.01855C13.6113 7.34874 13.5733 7.69572 13.4262 8.04192C13.6306 8.26875 13.8475 8.58404 13.9462 8.98947C14.0666 9.48412 13.9906 10.027 13.6613 10.5842C13.8668 11.3005 13.5912 12.183 12.8199 12.7753C12.8775 13.1141 12.94 13.5934 12.854 14.0215C12.7974 14.3038 12.6674 14.6177 12.3883 14.8555C12.1133 15.0899 11.7662 15.1887 11.3898 15.1923C10.539 15.2485 9.22665 15.3155 8.02627 15.3352C7.42237 15.3451 6.83919 15.3432 6.35427 15.321C5.89983 15.3002 5.44541 15.2596 5.15728 15.1574C4.92295 15.0744 4.70589 14.9671 4.51431 14.8723C4.49294 14.8618 4.47188 14.8514 4.45115 14.8411C4.2363 14.7354 4.0279 14.6366 3.77637 14.551C3.28396 14.3834 2.57164 14.2486 1.34809 14.3227C0.643866 14.3653 0 13.8025 0 13.0338V8.80385C0 8.07703 0.562731 7.58127 1.13462 7.47911C2.28446 7.27372 3.70324 6.33462 4.73799 3.99345V1.36979C4.73799 0.797192 5.11392 0.264464 5.69301 0.132695C6.35739 -0.0184849 7.39033 -0.169618 8.25181 0.463911Z" fill="white"/>
</svg>
