<svg width="14" height="16" viewBox="0 0 14 16" fill="none" xmlns="http://www.w3.org/2000/svg">
<path fill-rule="evenodd" clip-rule="evenodd" d="M8.01757 14.6236V12.0045C8.01757 11.8278 8.05345 11.6489 8.12678 11.4828C9.29018 8.84736 11.0061 7.55529 12.6522 7.26124C12.6925 7.25405 12.7252 7.23363 12.7434 7.21389C12.7516 7.20496 12.7546 7.19872 12.7553 7.19687L12.7556 2.96661C12.7556 2.96661 12.7541 2.96464 12.7525 2.96314C12.7459 2.95694 12.7363 2.95299 12.7251 2.95367C11.3769 3.03523 10.5025 2.8908 9.83234 2.66273C9.50256 2.5505 9.23569 2.42241 9.01118 2.3119C8.99154 2.30223 8.97238 2.29278 8.95367 2.28356C8.75053 2.18339 8.59908 2.1087 8.43686 2.05121C8.34555 2.01884 8.07005 1.97823 7.59037 1.95628C7.14116 1.93574 6.586 1.93346 5.99359 1.94318C4.81009 1.96258 3.50834 2.02925 2.67204 2.08483L2.65197 2.08616H2.63187C2.53987 2.08616 2.48225 2.0978 2.44945 2.1082C2.41858 2.11798 2.40787 2.12712 2.40627 2.12848C2.4046 2.1299 2.40005 2.13383 2.39309 2.14723C2.38523 2.16233 2.37407 2.19026 2.36474 2.23677C2.31873 2.46593 2.36864 2.79909 2.4393 3.19236C2.51663 3.62273 2.29862 3.99699 2.00898 4.18895C1.50431 4.5234 1.49124 4.92839 1.53565 5.06515C1.61781 5.31812 1.64711 5.69355 1.43379 6.02824C1.2233 6.35849 1.22936 6.57004 1.26108 6.70034C1.29971 6.85906 1.40732 7.01595 1.56059 7.16601C1.90564 7.50382 1.94636 8.01969 1.74503 8.40493C1.65954 8.56851 1.65989 8.6749 1.67237 8.74215C1.68683 8.82011 1.73066 8.90946 1.8158 9.0049C1.90142 9.10089 2.01079 9.18202 2.11192 9.23767C2.1595 9.26384 2.19805 9.28039 2.22294 9.28926L5.64595 9.28926V11.5268C5.64595 13.4929 6.09946 14.2221 6.4725 14.4964C6.85607 14.7785 7.3901 14.7641 8.01757 14.6236ZM5.74819 15.5361C4.87203 14.8918 4.40151 13.6148 4.40151 11.5268V10.5678L2.17787 10.5678C2.04228 10.5678 1.91585 10.5322 1.82858 10.5019C1.7297 10.4677 1.62637 10.4209 1.52441 10.3647C1.32234 10.2536 1.0947 10.0888 0.898381 9.86876C0.701565 9.64813 0.518492 9.35119 0.449922 8.98145C0.388685 8.65126 0.426697 8.30428 0.573834 7.95808C0.369416 7.73125 0.152507 7.41596 0.0538225 7.01053C-0.0665798 6.51588 0.00941277 5.97301 0.338682 5.41579C0.133224 4.69954 0.408792 3.81701 1.18009 3.22467C1.12248 2.88593 1.06001 2.40661 1.14595 1.9785C1.20262 1.69621 1.33265 1.38234 1.61169 1.1445C1.88666 0.910121 2.23376 0.811345 2.61024 0.807721C3.46098 0.751471 4.77335 0.684476 5.97373 0.664795C6.57763 0.654894 7.16081 0.656824 7.64573 0.679006C8.10017 0.699794 8.55459 0.74044 8.84272 0.842569C9.07705 0.925631 9.29411 1.03295 9.48569 1.12767C9.50706 1.13824 9.52812 1.14865 9.54885 1.15885C9.7637 1.2646 9.9721 1.36344 10.2236 1.44903C10.716 1.6166 11.4284 1.75136 12.6519 1.67734C13.3561 1.63473 14 2.19748 14 2.96618V7.19615C14 7.92297 13.4373 8.41873 12.8654 8.52089C11.7155 8.72628 10.2968 9.66538 9.26201 12.0066V14.6302C9.26201 15.2028 8.88608 15.7355 8.30699 15.8673C7.64261 16.0185 6.60967 16.1696 5.74819 15.5361Z" fill="white"/>
</svg>
