<svg width="32" height="32" viewBox="0 0 32 32" fill="none" xmlns="http://www.w3.org/2000/svg">
<rect width="32" height="32" rx="4" fill="#F50723"/>
<path d="M10.0346 14H8.24155V7.895H5.81055V6.344H12.4656V7.895H10.0346V14ZM16.4136 14.176C15.8416 14.176 15.3136 14.077 14.8406 13.879C14.3566 13.681 13.9386 13.406 13.5976 13.043C13.2456 12.68 12.9706 12.262 12.7836 11.767C12.5856 11.283 12.4866 10.755 12.4866 10.172C12.4866 9.589 12.5856 9.061 12.7836 8.566C12.9706 8.082 13.2456 7.664 13.5976 7.301C13.9386 6.938 14.3566 6.663 14.8406 6.465C15.3136 6.267 15.8416 6.168 16.4136 6.168C16.9966 6.168 17.5246 6.267 18.0086 6.465C18.4816 6.663 18.8996 6.938 19.2516 7.301C19.6036 7.664 19.8786 8.082 20.0766 8.566C20.2636 9.061 20.3626 9.589 20.3626 10.172C20.3626 10.755 20.2636 11.283 20.0766 11.767C19.8786 12.262 19.6036 12.68 19.2516 13.043C18.8996 13.406 18.4816 13.681 18.0086 13.879C17.5246 14.077 16.9966 14.176 16.4136 14.176ZM16.4136 12.592C16.8316 12.592 17.2056 12.493 17.5246 12.284C17.8436 12.086 18.0856 11.8 18.2726 11.437C18.4596 11.074 18.5476 10.656 18.5476 10.172C18.5476 9.688 18.4596 9.259 18.2726 8.896C18.0856 8.533 17.8436 8.258 17.5246 8.049C17.2056 7.851 16.8316 7.752 16.4136 7.752C16.0066 7.752 15.6436 7.851 15.3246 8.049C15.0056 8.258 14.7526 8.533 14.5766 8.896C14.3896 9.259 14.3016 9.688 14.3016 10.172C14.3016 10.656 14.3896 11.074 14.5766 11.437C14.7526 11.8 15.0056 12.086 15.3246 12.284C15.6436 12.493 16.0066 12.592 16.4136 12.592ZM21.0513 14V6.344H24.2193C24.8463 6.344 25.3963 6.454 25.8473 6.674C26.2983 6.894 26.6503 7.202 26.8923 7.598C27.1343 7.994 27.2553 8.456 27.2553 8.984C27.2553 9.512 27.1343 9.974 26.8923 10.37C26.6503 10.777 26.2983 11.085 25.8473 11.305C25.3963 11.525 24.8463 11.635 24.2193 11.635H22.8443V14H21.0513ZM22.8443 10.117H23.9553C24.4723 10.117 24.8463 10.018 25.0883 9.82C25.3193 9.633 25.4403 9.347 25.4403 8.984C25.4403 8.621 25.3193 8.346 25.0883 8.148C24.8463 7.961 24.4723 7.862 23.9553 7.862H22.8443V10.117Z" fill="white"/>
<path d="M10.5391 26V17.472L7.99513 18.176V15.984L13.0671 14.656V26H10.5391ZM19.896 26.24C18.984 26.24 18.184 26 17.496 25.52C16.808 25.056 16.264 24.384 15.896 23.504C15.528 22.64 15.336 21.616 15.336 20.432C15.336 19.264 15.528 18.24 15.896 17.36C16.264 16.48 16.808 15.808 17.496 15.328C18.184 14.864 18.984 14.624 19.896 14.624C20.808 14.624 21.624 14.864 22.312 15.328C23 15.808 23.528 16.48 23.896 17.36C24.264 18.24 24.456 19.264 24.456 20.432C24.456 21.616 24.264 22.64 23.896 23.504C23.528 24.384 23 25.056 22.312 25.52C21.624 26 20.808 26.24 19.896 26.24ZM19.896 24C20.52 24 21 23.68 21.352 23.056C21.704 22.432 21.88 21.568 21.88 20.432C21.88 19.296 21.704 18.416 21.352 17.792C21 17.168 20.52 16.864 19.896 16.864C19.272 16.864 18.792 17.168 18.44 17.792C18.088 18.416 17.912 19.296 17.912 20.432C17.912 21.568 18.088 22.432 18.44 23.056C18.792 23.68 19.272 24 19.896 24Z" fill="white"/>
</svg>
