<svg width="22" height="16" viewBox="0 0 22 16" fill="none" xmlns="http://www.w3.org/2000/svg">
<path d="M21.5395 2.40255C21.2865 1.45595 20.5411 0.710568 19.5945 0.457611C17.8787 -0.00219743 10.9992 -0.00219727 10.9992 -0.00219727C10.9992 -0.00219727 4.11967 -0.00219743 2.4038 0.457611C1.45741 0.710568 0.711861 1.45595 0.458861 2.40255C-0.000732422 4.11821 -0.000732422 7.69785 -0.000732422 7.69785C-0.000732422 7.69785 -0.000732422 11.2775 0.458861 12.993C0.711861 13.9396 1.45741 14.6851 2.4038 14.9381C4.11967 15.3977 10.9992 15.3977 10.9992 15.3977C10.9992 15.3977 17.8787 15.3977 19.5945 14.9381C20.5411 14.6851 21.2865 13.9396 21.5395 12.993C21.9993 11.2775 21.9993 7.69785 21.9993 7.69785C21.9993 7.69785 21.9993 4.11821 21.5395 2.40255Z" fill="white"/>
<path d="M8.79956 10.9983L14.5152 7.69824L8.79956 4.39819V10.9983Z" fill="black"/>
</svg>
